# Blender 3.4.1
# www.blender.org
mtllib bed_materace.mtl
o Cube.009
v -1.542151 1.978611 -1.932137
v -1.542151 2.006069 -1.709374
v -1.711716 2.006069 -1.932137
v -1.542151 2.637607 -1.709374
v -1.542151 2.665065 -1.932137
v -1.711716 2.637607 -1.932137
v -1.542151 1.978611 -7.055693
v -1.711716 2.006069 -7.055693
v -1.542151 2.006069 -7.278457
v -1.542151 2.665065 -7.055693
v -1.542151 2.637607 -7.278457
v -1.711716 2.637607 -7.055693
v 2.357836 1.978611 -1.932137
v 2.527400 2.006069 -1.932137
v 2.357836 2.006069 -1.709374
v 2.357836 2.665065 -1.932137
v 2.357836 2.637607 -1.709374
v 2.527400 2.637607 -1.932137
v 2.357836 1.978611 -7.055693
v 2.357836 2.006069 -7.278457
v 2.527400 2.006069 -7.055693
v 2.357836 2.665065 -7.055693
v 2.527400 2.637607 -7.055693
v 2.357836 2.637607 -7.278457
vn -0.0000 -0.0000 1.0000
vn 1.0000 -0.0000 -0.0000
vn -0.0000 1.0000 -0.0000
vn -1.0000 -0.0000 -0.0000
vn -0.0000 -0.0000 -1.0000
vn -0.1587 -0.9799 0.1208
vn -0.1587 0.9799 0.1208
vn -0.1587 -0.9799 -0.1208
vn -0.1587 0.9799 -0.1208
vn 0.1587 -0.9799 0.1208
vn 0.1587 0.9799 0.1208
vn 0.1587 -0.9799 -0.1208
vn 0.1587 0.9799 -0.1208
vn -0.1599 -0.9871 -0.0000
vn -0.7957 -0.0000 0.6057
vn -0.1599 0.9871 -0.0000
vn -0.7957 -0.0000 -0.6057
vn -0.0000 -0.9925 -0.1223
vn -0.0000 0.9925 -0.1223
vn 0.7957 -0.0000 -0.6057
vn 0.1599 -0.9871 -0.0000
vn 0.1599 0.9871 -0.0000
vn 0.7957 -0.0000 0.6057
vn -0.0000 -0.9925 0.1223
vn -0.0000 0.9925 0.1223
vn -0.0000 -1.0000 -0.0000
vt 0.135000 0.740000
vt 0.385000 0.990000
vt 0.385000 0.000000
vt 0.135000 0.750000
vt 0.125000 0.740000
vt 0.385000 0.010000
vt 0.615000 0.000000
vt 0.615000 0.990000
vt 0.865000 0.740000
vt 0.625000 0.010000
vt 0.625000 0.990000
vt 0.615000 0.010000
vt 0.135000 0.510000
vt 0.125000 0.510000
vt 0.385000 0.240000
vt 0.385000 0.260000
vt 0.135000 0.500000
vt 0.865000 0.510000
vt 0.625000 0.240000
vt 0.625000 0.260000
vt 0.615000 0.250000
vt 0.615000 0.260000
vt 0.615000 0.240000
vt 0.365000 0.740000
vt 0.375000 0.740000
vt 0.385000 0.740000
vt 0.385000 0.760000
vt 0.365000 0.750000
vt 0.635000 0.740000
vt 0.625000 0.760000
vt 0.615000 0.760000
vt 0.615000 0.750000
vt 0.615000 0.740000
vt 0.365000 0.510000
vt 0.365000 0.500000
vt 0.385000 0.490000
vt 0.375000 0.510000
vt 0.385000 0.510000
vt 0.625000 0.490000
vt 0.635000 0.510000
vt 0.615000 0.500000
vt 0.615000 0.510000
vt 0.615000 0.490000
s 0
f 15/27/1 17/31/1 4/8/1 2/2/1
f 21/38/2 23/42/2 18/33/2 14/26/2
f 22/40/3 10/18/3 5/9/3 16/29/3
f 3/6/4 6/12/4 12/23/4 8/15/4
f 9/16/5 11/22/5 24/43/5 20/36/5
f 1/1/6 2/4/6 3/5/6
f 4/7/7 5/10/7 6/12/7
f 7/13/8 8/14/8 9/17/8
f 10/19/9 11/21/9 12/23/9
f 13/24/10 14/25/10 15/28/10
f 16/30/11 17/31/11 18/32/11
f 19/34/12 20/35/12 21/37/12
f 22/39/13 23/41/13 24/43/13
f 7/13/14 1/1/14 3/5/14 8/14/14
f 2/3/15 4/7/15 6/12/15 3/6/15
f 5/10/16 10/19/16 12/23/16 6/12/16
f 11/22/17 9/16/17 8/15/17 12/23/17
f 19/34/18 7/13/18 9/17/18 20/35/18
f 10/20/19 22/39/19 24/43/19 11/22/19
f 23/42/20 21/38/20 20/36/20 24/43/20
f 13/24/21 19/34/21 21/38/21 14/26/21
f 22/40/22 16/29/22 18/33/22 23/42/22
f 17/31/23 15/27/23 14/26/23 18/33/23
f 1/1/24 13/24/24 15/28/24 2/4/24
f 16/30/25 5/11/25 4/8/25 17/31/25
f 7/13/26 19/34/26 13/24/26 1/1/26
