# Blender 3.4.1
# www.blender.org
mtllib bed_main.mtl
o Plane.007
v -1.842917 2.004603 -1.621521
v -1.842917 2.004603 -1.621521
v -1.842917 2.004603 -1.621521
v 2.657083 2.004603 -1.621521
v 2.657083 2.004603 -1.621521
v 2.657083 2.004603 -1.621521
v -1.842917 2.004603 -7.621521
v -1.842917 2.004603 -7.621521
v -1.842917 2.004603 -7.621521
v 2.657083 2.004603 -7.621521
v 2.657083 2.004603 -7.621521
v 2.657083 2.004603 -7.621521
v -1.842917 1.433882 -7.621222
v -1.842693 1.433882 -7.621521
v -1.842693 1.433749 -7.621222
v -1.842852 1.433882 -7.621433
v -1.842823 1.433805 -7.621395
v -1.842693 1.433788 -7.621433
v -1.842852 1.433788 -7.621222
v -1.842917 1.433882 -1.621820
v -1.842693 1.433749 -1.621820
v -1.842693 1.433882 -1.621521
v -1.842852 1.433788 -1.621820
v -1.842823 1.433805 -1.621647
v -1.842693 1.433788 -1.621608
v -1.842852 1.433882 -1.621608
v 2.656858 1.433882 -1.621521
v 2.656858 1.433749 -1.621820
v 2.657083 1.433882 -1.621820
v 2.656858 1.433788 -1.621608
v 2.656988 1.433805 -1.621647
v 2.657017 1.433788 -1.621820
v 2.657017 1.433882 -1.621608
v 2.657083 1.433882 -7.621222
v 2.656858 1.433749 -7.621222
v 2.656858 1.433882 -7.621521
v 2.657017 1.433788 -7.621222
v 2.656988 1.433805 -7.621395
v 2.656858 1.433788 -7.621433
v 2.657017 1.433882 -7.621433
v -1.842917 2.004737 -7.621222
v -1.842693 2.004737 -7.621521
v -1.843142 2.004603 -7.621820
v -1.842852 2.004737 -7.621433
v -1.842917 2.004659 -7.621521
v -1.842917 2.004642 -7.621609
v -1.842983 2.004642 -7.621521
v -1.842917 2.004737 -1.621820
v -1.843142 2.004603 -1.621222
v -1.842693 2.004737 -1.621521
v -1.842983 2.004642 -1.621521
v -1.842917 2.004659 -1.621521
v -1.842917 2.004642 -1.621433
v -1.842852 2.004737 -1.621608
v 2.656858 2.004737 -1.621521
v 2.657307 2.004603 -1.621222
v 2.657083 2.004737 -1.621820
v 2.657083 2.004642 -1.621433
v 2.657083 2.004659 -1.621521
v 2.657148 2.004642 -1.621521
v 2.657017 2.004737 -1.621608
v 2.657083 2.004737 -7.621222
v 2.657307 2.004603 -7.621820
v 2.656858 2.004737 -7.621521
v 2.657148 2.004642 -7.621521
v 2.657083 2.004659 -7.621521
v 2.657083 2.004642 -7.621609
v 2.657017 2.004737 -7.621433
vn -0.0000 -0.0013 1.0000
vn -0.0000 1.0000 -0.0000
vn -1.0000 -0.0000 -0.0000
vn -0.0000 -0.0000 1.0000
vn -0.0000 -1.0000 -0.0000
vn -0.0000 -0.0013 -1.0000
vn -0.0000 -0.0000 -1.0000
vn 1.0000 -0.0000 -0.0000
vn -0.8305 -0.5083 -0.2280
vn -0.3527 -0.5926 -0.7242
vn -0.2106 -0.9647 -0.1579
vn -0.8304 -0.5083 0.2282
vn -0.2107 -0.9647 0.1579
vn -0.3526 -0.5929 0.7240
vn 0.3527 -0.5926 0.7242
vn 0.2106 -0.9647 0.1579
vn 0.8305 -0.5083 0.2280
vn 0.8304 -0.5083 -0.2282
vn 0.2107 -0.9647 -0.1579
vn 0.3526 -0.5929 -0.7240
vn -0.4696 0.8550 -0.2203
vn -0.3044 0.8802 -0.3640
vn -0.1247 0.9878 -0.0933
vn -0.4696 0.8550 0.2202
vn -0.1247 0.9878 0.0933
vn -0.3044 0.8802 0.3640
vn 0.3044 0.8802 0.3640
vn 0.1247 0.9878 0.0933
vn 0.4696 0.8550 0.2203
vn 0.4696 0.8550 -0.2202
vn 0.1247 0.9878 -0.0933
vn 0.3044 0.8802 -0.3640
vn -0.2393 -0.9709 -0.0000
vn -0.8222 -0.5692 -0.0000
vn -0.0000 -0.9833 0.1818
vn -0.0000 -0.6776 0.7354
vn 0.2393 -0.9709 -0.0000
vn 0.8222 -0.5692 -0.0000
vn -0.0000 -0.9833 -0.1818
vn -0.0000 -0.6776 -0.7354
vn 0.9560 -0.0002 -0.2935
vn 0.4811 -0.0002 -0.8767
vn 0.9560 -0.0002 0.2935
vn 0.4811 -0.0002 0.8767
vn -0.9560 -0.0002 0.2935
vn -0.4811 -0.0002 0.8767
vn -0.9560 -0.0002 -0.2935
vn -0.4811 -0.0002 -0.8767
vn -0.2401 0.9707 -0.0000
vn -0.8215 0.5703 -0.0000
vn -0.0000 0.9832 0.1824
vn -0.0000 0.6785 0.7346
vn 0.2401 0.9707 -0.0000
vn 0.8215 0.5703 -0.0000
vn -0.0000 0.9832 -0.1824
vn -0.0000 0.6785 -0.7346
vn -0.3753 -0.6275 -0.6822
vn -0.7970 -0.5516 -0.2460
vn -0.3753 -0.6275 0.6822
vn -0.7970 -0.5516 0.2460
vn 0.3753 -0.6275 0.6822
vn 0.7970 -0.5516 0.2460
vn 0.3753 -0.6275 -0.6822
vn 0.7970 -0.5516 -0.2460
vt 0.000000 0.000000
vt 0.000000 0.000000
vt 0.000000 0.000000
vt 1.000000 0.000000
vt 1.000000 0.000000
vt 1.000000 0.000000
vt 0.000000 1.000000
vt 0.000000 1.000000
vt 0.000000 1.000000
vt 1.000000 1.000000
vt 1.000000 1.000000
vt 1.000000 1.000000
vt 0.000000 0.999950
vt 0.000050 1.000000
vt 0.000050 0.999950
vt 0.000000 1.000000
vt 0.000007 0.999993
vt 0.000050 1.000000
vt 0.000000 0.999950
vt 0.000000 0.000000
vt 0.000050 0.000050
vt 0.000000 0.000000
vt 0.000000 0.000050
vt 0.000007 0.000007
vt 0.000050 0.000000
vt 0.000000 0.000000
vt 0.999950 0.000000
vt 0.999950 0.000050
vt 1.000000 0.000050
vt 0.999950 0.000000
vt 0.999993 0.000007
vt 1.000000 0.000050
vt 1.000000 0.000000
vt 1.000000 1.000000
vt 0.999950 0.999950
vt 1.000000 1.000000
vt 1.000000 0.999950
vt 0.999993 0.999993
vt 0.999950 1.000000
vt 1.000000 1.000000
vt 0.000000 0.999950
vt 0.000000 1.000000
vt -0.000050 1.000050
vt 0.000000 1.000000
vt 0.000000 1.000000
vt 0.000000 1.000000
vt 0.000000 1.000000
vt 0.000000 0.000050
vt -0.000050 -0.000050
vt 0.000050 0.000000
vt 0.000000 0.000000
vt 0.000000 0.000000
vt 0.000000 0.000000
vt 0.000000 0.000000
vt 0.999950 0.000000
vt 1.000050 -0.000050
vt 1.000000 0.000050
vt 1.000000 0.000000
vt 1.000000 0.000000
vt 1.000000 0.000000
vt 1.000000 0.000000
vt 1.000000 0.999950
vt 1.000050 1.000050
vt 0.999950 1.000000
vt 1.000000 1.000000
vt 1.000000 1.000000
vt 1.000000 1.000000
vt 1.000000 1.000000
s 0
f 8/8/1 11/11/1 64/64/1 42/42/1
f 49/49/2 56/56/2 63/63/2 43/43/2
f 10/10/3 5/5/3 57/57/3 62/62/3
f 2/2/4 22/22/4 27/27/4 4/4/4
f 21/21/5 15/15/5 35/35/5 28/28/5
f 4/4/6 2/2/6 50/50/6 55/55/6
f 7/7/3 13/13/3 20/20/3 1/1/3
f 11/11/7 36/36/7 14/14/7 8/8/7
f 5/5/8 29/29/8 34/34/8 10/10/8
f 13/13/9 16/16/9 17/17/9 19/19/9
f 14/14/10 18/18/10 17/17/10 16/16/10
f 15/15/11 19/19/11 17/17/11 18/18/11
f 20/20/12 23/23/12 24/24/12 26/26/12
f 21/21/13 25/25/13 24/24/13 23/23/13
f 22/22/14 26/26/14 24/24/14 25/25/14
f 27/27/15 30/30/15 31/31/15 33/33/15
f 28/28/16 32/32/16 31/31/16 30/30/16
f 29/29/17 33/33/17 31/31/17 32/32/17
f 34/34/18 37/37/18 38/38/18 40/40/18
f 35/35/19 39/39/19 38/38/19 37/37/19
f 36/36/20 40/40/20 38/38/20 39/39/20
f 41/41/21 44/44/21 45/45/21 47/47/21
f 42/42/22 46/46/22 45/45/22 44/44/22
f 43/43/23 47/47/23 45/45/23 46/46/23
f 48/48/24 51/51/24 52/52/24 54/54/24
f 49/49/25 53/53/25 52/52/25 51/51/25
f 50/50/26 54/54/26 52/52/26 53/53/26
f 55/55/27 58/58/27 59/59/27 61/61/27
f 56/56/28 60/60/28 59/59/28 58/58/28
f 57/57/29 61/61/29 59/59/29 60/60/29
f 62/62/30 65/65/30 66/66/30 68/68/30
f 63/63/31 67/67/31 66/66/31 65/65/31
f 64/64/32 68/68/32 66/66/32 67/67/32
f 15/15/33 21/21/33 23/23/33 19/19/33
f 19/19/34 23/23/34 20/20/34 13/13/34
f 21/21/35 28/28/35 30/30/35 25/25/35
f 25/25/36 30/30/36 27/27/36 22/22/36
f 28/28/37 35/35/37 37/37/37 32/32/37
f 32/32/38 37/37/38 34/34/38 29/29/38
f 35/35/39 15/15/39 18/18/39 39/39/39
f 39/39/40 18/18/40 14/14/40 36/36/40
f 11/11/41 34/34/41 40/40/41 12/12/41
f 12/12/42 40/40/42 36/36/42 10/10/42
f 29/29/43 4/4/43 6/6/43 33/33/43
f 33/33/44 6/6/44 5/5/44 27/27/44
f 2/2/45 20/20/45 26/26/45 3/3/45
f 3/3/46 26/26/46 22/22/46 1/1/46
f 13/13/47 7/7/47 9/9/47 16/16/47
f 16/16/48 9/9/48 8/8/48 14/14/48
f 43/43/49 49/49/49 51/51/49 47/47/49
f 47/47/50 51/51/50 48/48/50 41/41/50
f 49/49/51 56/56/51 58/58/51 53/53/51
f 53/53/52 58/58/52 55/55/52 50/50/52
f 56/56/53 63/63/53 65/65/53 60/60/53
f 60/60/54 65/65/54 62/62/54 57/57/54
f 63/63/55 43/43/55 46/46/55 67/67/55
f 67/67/56 46/46/56 42/42/56 64/64/56
f 4/4/57 55/55/57 61/61/57 6/6/57
f 6/6/58 61/61/58 57/57/58 5/5/58
f 64/64/59 11/11/59 12/12/59 68/68/59
f 68/68/60 12/12/60 10/10/60 62/62/60
f 7/7/61 42/42/61 44/44/61 9/9/61
f 9/9/62 44/44/62 41/41/62 8/8/62
f 50/50/63 2/2/63 3/3/63 54/54/63
f 54/54/64 3/3/64 1/1/64 48/48/64
f 1/1/8 7/7/8 41/41/8 48/48/8
