# Blender 3.4.1
# www.blender.org
mtllib bedlamp1_main.mtl
o Cube.010
v -4.052731 2.564987 -5.976014
v -4.022083 2.529533 -5.976236
v -4.022305 2.564987 -5.945588
v -4.035991 3.388486 -5.931605
v -4.026118 3.421185 -5.972201
v -4.066714 3.388486 -5.962328
v -4.022083 2.529533 -6.648394
v -4.052731 2.564987 -6.648616
v -4.022305 2.564987 -6.679042
v -4.066714 3.388486 -6.662302
v -4.026118 3.421185 -6.652429
v -4.035991 3.388486 -6.693025
v -3.349926 2.529533 -5.976236
v -3.319277 2.564987 -5.976014
v -3.349703 2.564987 -5.945588
v -3.305295 3.388486 -5.962328
v -3.345891 3.421185 -5.972201
v -3.336017 3.388486 -5.931605
v -3.349926 2.529533 -6.648394
v -3.349703 2.564987 -6.679042
v -3.319277 2.564987 -6.648616
v -3.336017 3.388486 -6.693025
v -3.345891 3.421185 -6.652429
v -3.305295 3.388486 -6.662302
v -4.025557 2.647086 -5.942290
v -4.056029 2.647086 -5.972763
v -4.061924 2.750206 -5.905850
v -4.092469 2.750206 -5.936395
v -4.107634 2.875400 -5.860143
v -4.138176 2.875400 -5.890685
v -4.130097 3.032318 -5.837681
v -4.160638 3.032318 -5.868223
v -4.107565 3.189237 -5.860143
v -4.138177 3.189237 -5.890754
v -4.092469 3.314431 -5.936548
v -4.061771 3.314431 -5.905850
v -4.061771 3.314431 -6.718780
v -4.092469 3.314431 -6.688082
v -4.107565 3.189237 -6.764487
v -4.138177 3.189237 -6.733876
v -4.130097 3.032318 -6.786949
v -4.160638 3.032318 -6.756407
v -4.107634 2.875400 -6.764487
v -4.138176 2.875400 -6.733945
v -4.061924 2.750206 -6.718780
v -4.092469 2.750206 -6.688235
v -4.056029 2.647086 -6.651867
v -4.025557 2.647086 -6.682340
v -3.279540 3.314431 -6.688082
v -3.310237 3.314431 -6.718780
v -3.233832 3.189237 -6.733876
v -3.264443 3.189237 -6.764487
v -3.211370 3.032318 -6.756407
v -3.241912 3.032318 -6.786949
v -3.233832 2.875400 -6.733945
v -3.264374 2.875400 -6.764487
v -3.279540 2.750206 -6.688235
v -3.310084 2.750206 -6.718780
v -3.346452 2.647086 -6.682340
v -3.315979 2.647086 -6.651867
v -3.310237 3.314431 -5.905850
v -3.279540 3.314431 -5.936548
v -3.264443 3.189237 -5.860143
v -3.233832 3.189237 -5.890754
v -3.241912 3.032318 -5.837681
v -3.211370 3.032318 -5.868223
v -3.264374 2.875400 -5.860143
v -3.233832 2.875400 -5.890685
v -3.310084 2.750206 -5.905850
v -3.279540 2.750206 -5.936395
v -3.315979 2.647086 -5.972763
v -3.346452 2.647086 -5.942290
vn -0.0000 1.0000 -0.0000
vn 0.9992 -0.0401 -0.0000
vn -0.9429 -0.3332 -0.0000
vn -0.9445 0.3285 -0.0000
vn -0.0000 -0.0401 0.9992
vn -0.0000 -0.0401 -0.9992
vn -0.0000 0.3285 0.9445
vn -0.9394 -0.3430 -0.0000
vn -0.9899 -0.1417 -0.0000
vn -0.9899 0.1417 -0.0000
vn -0.9394 0.3430 -0.0000
vn -0.0000 0.3430 -0.9394
vn 0.9445 0.3285 -0.0000
vn 0.9429 -0.3332 -0.0000
vn 0.9394 -0.3430 -0.0000
vn 0.9899 -0.1417 -0.0000
vn 0.9899 0.1417 -0.0000
vn -0.0000 0.3285 -0.9445
vn 0.9394 0.3430 -0.0000
vn -0.0000 -0.3332 -0.9429
vn -0.0000 -0.3430 -0.9394
vn -0.0000 -0.1417 -0.9899
vn -0.0000 0.1417 -0.9899
vn -0.0000 -1.0000 -0.0000
vn -0.0000 -0.3332 0.9429
vn -0.0000 -0.3430 0.9394
vn -0.0000 -0.1417 0.9899
vn -0.0000 0.1417 0.9899
vn -0.0000 0.3430 0.9394
vn -0.6021 -0.5243 0.6021
vn -0.4777 0.7373 0.4777
vn -0.6021 -0.5243 -0.6021
vn -0.4777 0.7373 -0.4777
vn 0.6021 -0.5243 0.6021
vn 0.4777 0.7373 0.4777
vn 0.6021 -0.5243 -0.6021
vn 0.4777 0.7373 -0.4777
vn -0.7565 -0.6540 -0.0000
vn -0.6345 0.4415 0.6345
vn -0.6273 0.7788 -0.0000
vn -0.7060 -0.0563 -0.7060
vn -0.0000 -0.6540 -0.7565
vn -0.0000 0.7788 -0.6273
vn 0.7060 -0.0563 -0.7060
vn 0.7565 -0.6540 -0.0000
vn 0.6273 0.7788 -0.0000
vn 0.7060 -0.0563 0.7060
vn -0.0000 -0.6540 0.7565
vn -0.0000 0.7788 0.6273
vn -0.7060 -0.0563 0.7060
vn -0.6326 -0.4467 0.6326
vn -0.6283 -0.4588 0.6283
vn -0.6930 -0.1984 0.6930
vn -0.6930 0.1987 0.6930
vn -0.6282 0.4591 0.6282
vn -0.6345 0.4415 -0.6345
vn -0.6282 0.4591 -0.6282
vn -0.6930 0.1987 -0.6930
vn -0.6930 -0.1984 -0.6930
vn -0.6283 -0.4588 -0.6283
vn -0.6326 -0.4467 -0.6326
vn 0.6345 0.4415 -0.6345
vn 0.6282 0.4591 -0.6282
vn 0.6930 0.1987 -0.6930
vn 0.6930 -0.1984 -0.6930
vn 0.6283 -0.4588 -0.6283
vn 0.6326 -0.4467 -0.6326
vn 0.6345 0.4415 0.6345
vn 0.6282 0.4591 0.6282
vn 0.6930 0.1987 0.6930
vn 0.6930 -0.1984 0.6930
vn 0.6283 -0.4588 0.6283
vn 0.6326 -0.4467 0.6326
vn -0.9992 -0.0401 -0.0000
vt 0.125000 0.740076
vt 0.385406 0.010359
vt 0.135000 0.740000
vt 0.385406 0.989641
vt 0.134924 0.750000
vt 0.384879 0.000000
vt 0.617708 0.000000
vt 0.613690 0.990108
vt 0.865109 0.740109
vt 0.625000 0.009891
vt 0.625000 0.990109
vt 0.613689 0.009892
vt 0.135000 0.510000
vt 0.125000 0.509924
vt 0.385406 0.239641
vt 0.385406 0.260359
vt 0.134924 0.500000
vt 0.613690 0.240108
vt 0.865109 0.509891
vt 0.625000 0.240109
vt 0.625000 0.259891
vt 0.617708 0.250000
vt 0.613689 0.259892
vt 0.365000 0.740000
vt 0.375000 0.740076
vt 0.385406 0.739641
vt 0.385406 0.760359
vt 0.365076 0.750000
vt 0.617708 0.750000
vt 0.613690 0.740108
vt 0.634891 0.740109
vt 0.625000 0.759891
vt 0.613689 0.759892
vt 0.365000 0.510000
vt 0.365076 0.500000
vt 0.385406 0.489641
vt 0.375000 0.509924
vt 0.385406 0.510359
vt 0.613690 0.490108
vt 0.625000 0.490109
vt 0.634891 0.509891
vt 0.617708 0.500000
vt 0.613690 0.509892
vt 0.409502 0.989706
vt 0.408975 0.000000
vt 0.409502 0.000000
vt 0.409502 0.010294
vt 0.445217 0.990607
vt 0.441186 0.000000
vt 0.445217 0.000000
vt 0.445217 0.009393
vt 0.480931 0.991557
vt 0.477563 0.000000
vt 0.480931 0.000000
vt 0.480931 0.008443
vt 0.516645 0.991957
vt 0.515261 0.000000
vt 0.518029 0.000000
vt 0.516645 0.008043
vt 0.552359 0.991538
vt 0.552359 0.000000
vt 0.555735 0.000000
vt 0.552359 0.008462
vt 0.588074 0.009440
vt 0.588074 0.990560
vt 0.592089 0.000000
vt 0.588074 0.000000
vt 0.588074 0.259440
vt 0.588074 0.240560
vt 0.552359 0.258462
vt 0.552359 0.241538
vt 0.516645 0.258043
vt 0.516645 0.241957
vt 0.480931 0.258443
vt 0.480931 0.241557
vt 0.445217 0.259393
vt 0.445217 0.240607
vt 0.409502 0.239706
vt 0.409502 0.260294
vt 0.588074 0.509440
vt 0.588074 0.490560
vt 0.552359 0.508462
vt 0.552359 0.491538
vt 0.516645 0.508043
vt 0.516645 0.491957
vt 0.480931 0.508443
vt 0.480931 0.491557
vt 0.445217 0.509393
vt 0.445217 0.490607
vt 0.409502 0.489706
vt 0.409502 0.510294
vt 0.588074 0.759440
vt 0.588074 0.740560
vt 0.552359 0.758462
vt 0.552359 0.741538
vt 0.516645 0.758043
vt 0.516645 0.741957
vt 0.480931 0.758443
vt 0.480931 0.741557
vt 0.445217 0.759393
vt 0.445217 0.740607
vt 0.409502 0.739706
vt 0.409502 0.760294
s 0
f 23/41/1 11/19/1 5/9/1 17/31/1
f 21/38/2 60/91/2 71/102/2 14/26/2
f 26/47/3 28/51/3 46/77/3 47/78/3
f 35/64/4 6/12/4 10/18/4 38/69/4
f 15/27/5 72/103/5 25/44/5 3/4/5
f 9/16/6 48/79/6 59/90/6 20/36/6
f 61/92/7 18/33/7 4/8/7 36/65/7
f 28/51/8 30/55/8 44/75/8 46/77/8
f 30/55/9 32/59/9 42/73/9 44/75/9
f 32/59/10 34/63/10 40/71/10 42/73/10
f 34/63/11 35/64/11 38/69/11 40/71/11
f 39/70/12 37/68/12 50/81/12 52/83/12
f 49/80/13 24/43/13 16/30/13 62/93/13
f 60/91/14 57/88/14 70/101/14 71/102/14
f 57/88/15 55/86/15 68/99/15 70/101/15
f 55/86/16 53/84/16 66/97/16 68/99/16
f 53/84/17 51/82/17 64/95/17 66/97/17
f 37/68/18 12/23/18 22/39/18 50/81/18
f 51/82/19 49/80/19 62/93/19 64/95/19
f 48/79/20 45/76/20 58/89/20 59/90/20
f 45/76/21 43/74/21 56/87/21 58/89/21
f 43/74/22 41/72/22 54/85/22 56/87/22
f 41/72/23 39/70/23 52/83/23 54/85/23
f 7/13/24 19/34/24 13/24/24 2/3/24
f 72/103/25 69/100/25 27/48/25 25/44/25
f 69/100/26 67/98/26 29/52/26 27/48/26
f 67/98/27 65/96/27 31/56/27 29/52/27
f 65/96/28 63/94/28 33/60/28 31/56/28
f 63/94/29 61/92/29 36/65/29 33/60/29
f 1/1/30 2/3/30 3/5/30
f 4/7/31 5/10/31 6/12/31
f 7/13/32 8/14/32 9/17/32
f 10/18/33 11/20/33 12/22/33
f 13/24/34 14/25/34 15/28/34
f 16/29/35 17/32/35 18/33/35
f 19/34/36 20/35/36 21/37/36
f 22/39/37 23/40/37 24/42/37
f 7/13/38 2/3/38 1/1/38 8/14/38
f 36/66/39 4/7/39 6/12/39 35/64/39
f 5/10/40 11/20/40 10/18/40 6/12/40
f 48/79/41 9/16/41 8/15/41 47/78/41
f 19/34/42 7/13/42 9/17/42 20/35/42
f 11/21/43 23/40/43 22/39/43 12/23/43
f 60/91/44 21/38/44 20/36/44 59/90/44
f 13/24/45 19/34/45 21/38/45 14/26/45
f 23/41/46 17/31/46 16/30/46 24/43/46
f 72/103/47 15/27/47 14/26/47 71/102/47
f 2/3/48 13/24/48 15/28/48 3/5/48
f 17/32/49 5/11/49 4/8/49 18/33/49
f 3/6/50 25/45/50 26/47/50 1/2/50
f 25/46/51 27/49/51 28/51/51 26/47/51
f 27/50/52 29/53/52 30/55/52 28/51/52
f 29/54/53 31/57/53 32/59/53 30/55/53
f 31/58/54 33/61/54 34/63/54 32/59/54
f 33/62/55 36/67/55 35/64/55 34/63/55
f 12/23/56 37/68/56 38/69/56 10/18/56
f 37/68/57 39/70/57 40/71/57 38/69/57
f 39/70/58 41/72/58 42/73/58 40/71/58
f 41/72/59 43/74/59 44/75/59 42/73/59
f 43/74/60 45/76/60 46/77/60 44/75/60
f 45/76/61 48/79/61 47/78/61 46/77/61
f 24/43/62 49/80/62 50/81/62 22/39/62
f 49/80/63 51/82/63 52/83/63 50/81/63
f 51/82/64 53/84/64 54/85/64 52/83/64
f 53/84/65 55/86/65 56/87/65 54/85/65
f 55/86/66 57/88/66 58/89/66 56/87/66
f 57/88/67 60/91/67 59/90/67 58/89/67
f 18/33/68 61/92/68 62/93/68 16/30/68
f 61/92/69 63/94/69 64/95/69 62/93/69
f 63/94/70 65/96/70 66/97/70 64/95/70
f 65/96/71 67/98/71 68/99/71 66/97/71
f 67/98/72 69/100/72 70/101/72 68/99/72
f 69/100/73 72/103/73 71/102/73 70/101/73
f 1/2/74 26/47/74 47/78/74 8/15/74
