# Blender 3.4.1
# www.blender.org
mtllib bedlamp2_top.mtl
o Cylinder.012
v 4.361061 3.416793 -7.049741
v 4.361061 3.447071 -7.066440
v 4.361061 4.321220 -6.446756
v 4.361061 4.290942 -6.503829
v 4.640488 3.416793 -6.994159
v 4.646878 3.447071 -7.009587
v 4.409736 4.321220 -6.437075
v 4.431576 4.290942 -6.489803
v 4.877375 3.416793 -6.835877
v 4.889183 3.447071 -6.847685
v 4.451000 4.321220 -6.409503
v 4.491356 4.290942 -6.449859
v 5.035657 3.416793 -6.598990
v 5.051085 3.447071 -6.605381
v 4.478572 4.321220 -6.368238
v 4.531301 4.290942 -6.390079
v 5.091238 3.416793 -6.319563
v 5.107938 3.447071 -6.319563
v 4.488255 4.321220 -6.319563
v 4.545327 4.290942 -6.319563
v 5.035657 3.416793 -6.040136
v 5.051085 3.447071 -6.033745
v 4.478572 4.321220 -6.270888
v 4.531301 4.290942 -6.249047
v 4.877375 3.416793 -5.803249
v 4.889183 3.447071 -5.791441
v 4.451000 4.321220 -6.229623
v 4.491356 4.290942 -6.189267
v 4.640488 3.416793 -5.644967
v 4.646878 3.447071 -5.629539
v 4.409736 4.321220 -6.202051
v 4.431576 4.290942 -6.149323
v 4.361061 3.416793 -5.589385
v 4.361061 3.447071 -5.572686
v 4.361061 4.321220 -6.192369
v 4.361061 4.290942 -6.135297
v 4.081634 3.416793 -5.644967
v 4.075243 3.447071 -5.629539
v 4.312386 4.321220 -6.202051
v 4.290545 4.290942 -6.149323
v 3.844747 3.416793 -5.803249
v 3.832939 3.447071 -5.791441
v 4.271121 4.321220 -6.229623
v 4.230765 4.290942 -6.189267
v 3.686464 3.416793 -6.040136
v 3.671036 3.447071 -6.033745
v 4.243549 4.321220 -6.270888
v 4.190821 4.290942 -6.249047
v 3.630883 3.416793 -6.319563
v 3.614183 3.447071 -6.319563
v 4.233867 4.321220 -6.319563
v 4.176795 4.290942 -6.319563
v 3.686464 3.416793 -6.598990
v 3.671036 3.447071 -6.605381
v 4.243549 4.321220 -6.368238
v 4.190821 4.290942 -6.390079
v 3.844747 3.416793 -6.835877
v 3.832939 3.447071 -6.847685
v 4.271121 4.321220 -6.409503
v 4.230765 4.290942 -6.449859
v 4.081634 3.416793 -6.994159
v 4.075243 3.447071 -7.009587
v 4.312386 4.321220 -6.437075
v 4.290545 4.290942 -6.489803
v 4.081634 3.416793 -6.994159
v 4.075243 3.447071 -7.009587
v 4.312386 4.321220 -6.437075
v 4.290545 4.290942 -6.489803
v 3.844747 3.416793 -6.835877
v 3.832939 3.447071 -6.847685
v 4.271121 4.321220 -6.409503
v 4.230765 4.290942 -6.449859
v 3.686464 3.416793 -6.598990
v 3.671036 3.447071 -6.605381
v 4.243549 4.321220 -6.368238
v 4.190821 4.290942 -6.390079
v 3.630883 3.416793 -6.319563
v 3.614183 3.447071 -6.319563
v 4.233867 4.321220 -6.319563
v 4.176795 4.290942 -6.319563
v 3.686464 3.416793 -6.040136
v 3.671036 3.447071 -6.033745
v 4.243549 4.321220 -6.270888
v 4.190821 4.290942 -6.249047
v 3.844747 3.416793 -5.803249
v 3.832939 3.447071 -5.791441
v 4.271121 4.321220 -6.229623
v 4.230765 4.290942 -6.189267
v 4.081634 3.416793 -5.644967
v 4.075243 3.447071 -5.629539
v 4.312386 4.321220 -6.202051
v 4.290545 4.290942 -6.149323
v 4.640488 3.416793 -5.644967
v 4.646878 3.447071 -5.629539
v 4.409736 4.321220 -6.202051
v 4.431576 4.290942 -6.149323
v 4.877375 3.416793 -5.803249
v 4.889183 3.447071 -5.791441
v 4.451000 4.321220 -6.229623
v 4.491356 4.290942 -6.189267
v 5.035657 3.416793 -6.040136
v 5.051085 3.447071 -6.033745
v 4.478572 4.321220 -6.270888
v 4.531301 4.290942 -6.249047
v 5.091238 3.416793 -6.319563
v 5.107938 3.447071 -6.319563
v 4.488255 4.321220 -6.319563
v 4.545327 4.290942 -6.319563
v 5.035657 3.416793 -6.598990
v 5.051085 3.447071 -6.605381
v 4.478572 4.321220 -6.368238
v 4.531301 4.290942 -6.390079
v 4.877375 3.416793 -6.835877
v 4.889183 3.447071 -6.847685
v 4.451000 4.321220 -6.409503
v 4.491356 4.290942 -6.449859
v 4.640488 3.416793 -6.994159
v 4.646878 3.447071 -7.009587
v 4.409736 4.321220 -6.437075
v 4.431576 4.290942 -6.489803
vn -0.1633 0.5473 -0.8209
vn 0.6959 0.5473 -0.4650
vn 0.8209 0.5473 -0.1633
vn 0.8209 0.5473 0.1633
vn 0.6959 0.5473 0.4650
vn 0.4650 0.5473 0.6959
vn 0.1633 0.5473 0.8209
vn -0.1633 0.5473 0.8209
vn -0.4650 0.5473 0.6959
vn -0.6959 0.5473 0.4650
vn -0.8209 0.5473 0.1633
vn -0.8209 0.5473 -0.1633
vn -0.6959 0.5473 -0.4650
vn -0.4650 0.5473 -0.6959
vn 0.4650 0.5473 -0.6959
vn -0.0000 1.0000 -0.0000
vn 0.1633 0.5473 -0.8209
vn 0.1716 -0.4758 -0.8627
vn 0.0928 0.8796 -0.4666
vn 0.4887 -0.4758 -0.7313
vn 0.2643 0.8796 -0.3956
vn 0.7313 -0.4758 -0.4887
vn 0.3956 0.8796 -0.2643
vn 0.8627 -0.4758 -0.1716
vn 0.4666 0.8796 -0.0928
vn 0.8627 -0.4758 0.1716
vn 0.4666 0.8796 0.0928
vn 0.7313 -0.4758 0.4887
vn 0.3956 0.8796 0.2643
vn 0.4887 -0.4758 0.7313
vn 0.2643 0.8796 0.3956
vn 0.1716 -0.4758 0.8627
vn 0.0928 0.8796 0.4666
vn -0.1716 -0.4758 0.8627
vn -0.0928 0.8796 0.4666
vn -0.4887 -0.4758 0.7313
vn -0.2643 0.8796 0.3956
vn -0.7313 -0.4758 0.4887
vn -0.3956 0.8796 0.2643
vn -0.8627 -0.4758 0.1716
vn -0.4666 0.8796 0.0928
vn -0.8627 -0.4758 -0.1716
vn -0.4666 0.8796 -0.0928
vn -0.7313 -0.4758 -0.4887
vn -0.3956 0.8796 -0.2643
vn -0.4887 -0.4758 -0.7313
vn -0.2643 0.8796 -0.3956
vn -0.1716 -0.4758 -0.8627
vn -0.0928 0.8796 -0.4666
vn -0.0000 -1.0000 -0.0000
vt 0.750000 0.478459
vt 0.000000 0.516739
vt 1.000000 0.516739
vt 0.751208 0.489760
vt 0.748791 0.489760
vt 0.250000 0.436047
vt 0.000000 0.983261
vt 1.000000 0.983261
vt 0.250000 0.490000
vt 0.837427 0.461069
vt 0.937500 0.516739
vt 0.840636 0.471971
vt 0.842869 0.471046
vt 0.321197 0.421885
vt 0.937500 0.983261
vt 0.341844 0.471731
vt 0.911545 0.411545
vt 0.875000 0.516739
vt 0.918681 0.420390
vt 0.920390 0.418681
vt 0.381555 0.381555
vt 0.875000 0.983261
vt 0.419706 0.419706
vt 0.961069 0.337427
vt 0.812500 0.516739
vt 0.971047 0.342869
vt 0.971971 0.340636
vt 0.421885 0.321197
vt 0.812500 0.983261
vt 0.471731 0.341844
vt 0.978459 0.250000
vt 0.750000 0.516739
vt 0.989760 0.251209
vt 0.989760 0.248791
vt 0.436047 0.250000
vt 0.750000 0.983261
vt 0.490000 0.250000
vt 0.961069 0.162572
vt 0.687500 0.516739
vt 0.971971 0.159365
vt 0.971047 0.157131
vt 0.421885 0.178803
vt 0.687500 0.983261
vt 0.471731 0.158156
vt 0.911545 0.088455
vt 0.625000 0.516739
vt 0.920390 0.081319
vt 0.918681 0.079610
vt 0.381555 0.118445
vt 0.625000 0.983261
vt 0.419706 0.080294
vt 0.837427 0.038931
vt 0.562500 0.516739
vt 0.842869 0.028953
vt 0.840636 0.028029
vt 0.321197 0.078115
vt 0.562500 0.983261
vt 0.341844 0.028269
vt 0.750000 0.021541
vt 0.500000 0.516739
vt 0.751208 0.010240
vt 0.748791 0.010240
vt 0.250000 0.063953
vt 0.500000 0.983261
vt 0.250000 0.010000
vt 0.662572 0.038931
vt 0.437500 0.516739
vt 0.659364 0.028029
vt 0.657131 0.028953
vt 0.178803 0.078115
vt 0.437500 0.983261
vt 0.158156 0.028269
vt 0.588455 0.088455
vt 0.375000 0.516739
vt 0.581319 0.079610
vt 0.579610 0.081319
vt 0.118445 0.118445
vt 0.375000 0.983261
vt 0.080294 0.080294
vt 0.538931 0.162572
vt 0.312500 0.516739
vt 0.528953 0.157131
vt 0.528029 0.159365
vt 0.078115 0.178803
vt 0.312500 0.983261
vt 0.028269 0.158156
vt 0.521541 0.250000
vt 0.250000 0.516739
vt 0.510240 0.248791
vt 0.510240 0.251209
vt 0.063953 0.250000
vt 0.250000 0.983261
vt 0.010000 0.250000
vt 0.538931 0.337427
vt 0.187500 0.516739
vt 0.528029 0.340636
vt 0.528953 0.342869
vt 0.078115 0.321197
vt 0.187500 0.983261
vt 0.028269 0.341844
vt 0.588455 0.411545
vt 0.125000 0.516739
vt 0.579610 0.418681
vt 0.581319 0.420390
vt 0.118445 0.381555
vt 0.125000 0.983261
vt 0.080294 0.419706
vt 0.662573 0.461069
vt 0.062500 0.516739
vt 0.657131 0.471046
vt 0.659365 0.471971
vt 0.178803 0.421885
vt 0.062500 0.983261
vt 0.158156 0.471731
vt 0.837427 0.461069
vt 0.937500 0.516739
vt 0.840636 0.471971
vt 0.842869 0.471046
vt 0.321197 0.421885
vt 0.937500 0.983261
vt 0.341844 0.471731
vt 0.911545 0.411545
vt 0.875000 0.516739
vt 0.918681 0.420390
vt 0.920390 0.418681
vt 0.381555 0.381555
vt 0.875000 0.983261
vt 0.419706 0.419706
vt 0.961069 0.337427
vt 0.812500 0.516739
vt 0.971047 0.342869
vt 0.971971 0.340636
vt 0.421885 0.321197
vt 0.812500 0.983261
vt 0.471731 0.341844
vt 0.978459 0.250000
vt 0.750000 0.516739
vt 0.989760 0.251209
vt 0.989760 0.248791
vt 0.436047 0.250000
vt 0.750000 0.983261
vt 0.490000 0.250000
vt 0.961069 0.162572
vt 0.687500 0.516739
vt 0.971971 0.159365
vt 0.971047 0.157131
vt 0.421885 0.178803
vt 0.687500 0.983261
vt 0.471731 0.158156
vt 0.911545 0.088455
vt 0.625000 0.516739
vt 0.920390 0.081319
vt 0.918681 0.079610
vt 0.381555 0.118445
vt 0.625000 0.983261
vt 0.419706 0.080294
vt 0.837427 0.038931
vt 0.562500 0.516739
vt 0.842869 0.028953
vt 0.840636 0.028029
vt 0.321197 0.078115
vt 0.562500 0.983261
vt 0.341844 0.028269
vt 0.662572 0.038931
vt 0.437500 0.516739
vt 0.659364 0.028029
vt 0.657131 0.028953
vt 0.178803 0.078115
vt 0.437500 0.983261
vt 0.158156 0.028269
vt 0.588455 0.088455
vt 0.375000 0.516739
vt 0.581319 0.079610
vt 0.579610 0.081319
vt 0.118445 0.118445
vt 0.375000 0.983261
vt 0.080294 0.080294
vt 0.538931 0.162572
vt 0.312500 0.516739
vt 0.528953 0.157131
vt 0.528029 0.159365
vt 0.078115 0.178803
vt 0.312500 0.983261
vt 0.028269 0.158156
vt 0.521541 0.250000
vt 0.250000 0.516739
vt 0.510240 0.248791
vt 0.510240 0.251209
vt 0.063953 0.250000
vt 0.250000 0.983261
vt 0.010000 0.250000
vt 0.538931 0.337427
vt 0.187500 0.516739
vt 0.528029 0.340636
vt 0.528953 0.342869
vt 0.078115 0.321197
vt 0.187500 0.983261
vt 0.028269 0.341844
vt 0.588455 0.411545
vt 0.125000 0.516739
vt 0.579610 0.418681
vt 0.581319 0.420390
vt 0.118445 0.381555
vt 0.125000 0.983261
vt 0.080294 0.419706
vt 0.662573 0.461069
vt 0.062500 0.516739
vt 0.657131 0.471046
vt 0.659365 0.471971
vt 0.178803 0.421885
vt 0.062500 0.983261
vt 0.158156 0.471731
s 0
f 62/109/1 64/113/1 4/7/1 2/2/1
f 10/18/2 12/22/2 16/29/2 14/25/2
f 14/25/3 16/29/3 20/36/3 18/32/3
f 18/32/4 20/36/4 24/43/4 22/39/4
f 22/39/5 24/43/5 28/50/5 26/46/5
f 26/46/6 28/50/6 32/57/6 30/53/6
f 30/53/7 32/57/7 36/64/7 34/60/7
f 34/60/8 36/64/8 40/71/8 38/67/8
f 38/67/9 40/71/9 44/78/9 42/74/9
f 42/74/10 44/78/10 48/85/10 46/81/10
f 46/81/11 48/85/11 52/92/11 50/88/11
f 50/88/12 52/92/12 56/99/12 54/95/12
f 54/95/13 56/99/13 60/106/13 58/102/13
f 58/102/14 60/106/14 64/113/14 62/109/14
f 6/11/15 8/15/15 12/22/15 10/18/15
f 7/14/16 3/6/16 63/112/16 59/105/16 55/98/16 51/91/16 47/84/16 43/77/16 39/70/16 35/63/16 31/56/16 27/49/16 23/42/16 19/35/16 15/28/16 11/21/16
f 2/3/17 4/8/17 8/15/17 6/11/17
f 2/4/18 6/12/18 5/10/18 1/1/18
f 8/16/19 4/9/19 3/6/19 7/14/19
f 6/13/20 10/19/20 9/17/20 5/10/20
f 12/23/21 8/16/21 7/14/21 11/21/21
f 10/20/22 14/26/22 13/24/22 9/17/22
f 16/30/23 12/23/23 11/21/23 15/28/23
f 14/27/24 18/33/24 17/31/24 13/24/24
f 20/37/25 16/30/25 15/28/25 19/35/25
f 18/34/26 22/40/26 21/38/26 17/31/26
f 24/44/27 20/37/27 19/35/27 23/42/27
f 22/41/28 26/47/28 25/45/28 21/38/28
f 28/51/29 24/44/29 23/42/29 27/49/29
f 26/48/30 30/54/30 29/52/30 25/45/30
f 32/58/31 28/51/31 27/49/31 31/56/31
f 30/55/32 34/61/32 33/59/32 29/52/32
f 36/65/33 32/58/33 31/56/33 35/63/33
f 34/62/34 38/68/34 37/66/34 33/59/34
f 40/72/35 36/65/35 35/63/35 39/70/35
f 38/69/36 42/75/36 41/73/36 37/66/36
f 44/79/37 40/72/37 39/70/37 43/77/37
f 42/76/38 46/82/38 45/80/38 41/73/38
f 48/86/39 44/79/39 43/77/39 47/84/39
f 46/83/40 50/89/40 49/87/40 45/80/40
f 52/93/41 48/86/41 47/84/41 51/91/41
f 50/90/42 54/96/42 53/94/42 49/87/42
f 56/100/43 52/93/43 51/91/43 55/98/43
f 54/97/44 58/103/44 57/101/44 53/94/44
f 60/107/45 56/100/45 55/98/45 59/105/45
f 58/104/46 62/110/46 61/108/46 57/101/46
f 64/114/47 60/107/47 59/105/47 63/112/47
f 62/111/48 2/5/48 1/1/48 61/108/48
f 4/9/49 64/114/49 63/112/49 3/6/49
f 1/1/50 5/10/50 9/17/50 13/24/50 17/31/50 21/38/50 25/45/50 29/52/50 33/59/50 37/66/50 41/73/50 45/80/50 49/87/50 53/94/50 57/101/50 61/108/50
f 118/207/17 2/2/17 4/7/17 120/211/17
f 70/123/13 74/130/13 76/134/13 72/127/13
f 74/130/12 78/137/12 80/141/12 76/134/12
f 78/137/11 82/144/11 84/148/11 80/141/11
f 82/144/10 86/151/10 88/155/10 84/148/10
f 86/151/9 90/158/9 92/162/9 88/155/9
f 90/158/8 34/60/8 36/64/8 92/162/8
f 34/60/7 94/165/7 96/169/7 36/64/7
f 94/165/6 98/172/6 100/176/6 96/169/6
f 98/172/5 102/179/5 104/183/5 100/176/5
f 102/179/4 106/186/4 108/190/4 104/183/4
f 106/186/3 110/193/3 112/197/3 108/190/3
f 110/193/2 114/200/2 116/204/2 112/197/2
f 114/200/15 118/207/15 120/211/15 116/204/15
f 66/116/14 70/123/14 72/127/14 68/120/14
f 67/119/16 71/126/16 75/133/16 79/140/16 83/147/16 87/154/16 91/161/16 35/63/16 95/168/16 99/175/16 103/182/16 107/189/16 111/196/16 115/203/16 119/210/16 3/6/16
f 2/3/1 66/116/1 68/120/1 4/8/1
f 2/4/48 1/1/48 65/115/48 66/117/48
f 68/121/49 67/119/49 3/6/49 4/9/49
f 66/118/46 65/115/46 69/122/46 70/124/46
f 72/128/47 71/126/47 67/119/47 68/121/47
f 70/125/44 69/122/44 73/129/44 74/131/44
f 76/135/45 75/133/45 71/126/45 72/128/45
f 74/132/42 73/129/42 77/136/42 78/138/42
f 80/142/43 79/140/43 75/133/43 76/135/43
f 78/139/40 77/136/40 81/143/40 82/145/40
f 84/149/41 83/147/41 79/140/41 80/142/41
f 82/146/38 81/143/38 85/150/38 86/152/38
f 88/156/39 87/154/39 83/147/39 84/149/39
f 86/153/36 85/150/36 89/157/36 90/159/36
f 92/163/37 91/161/37 87/154/37 88/156/37
f 90/160/34 89/157/34 33/59/34 34/61/34
f 36/65/35 35/63/35 91/161/35 92/163/35
f 34/62/32 33/59/32 93/164/32 94/166/32
f 96/170/33 95/168/33 35/63/33 36/65/33
f 94/167/30 93/164/30 97/171/30 98/173/30
f 100/177/31 99/175/31 95/168/31 96/170/31
f 98/174/28 97/171/28 101/178/28 102/180/28
f 104/184/29 103/182/29 99/175/29 100/177/29
f 102/181/26 101/178/26 105/185/26 106/187/26
f 108/191/27 107/189/27 103/182/27 104/184/27
f 106/188/24 105/185/24 109/192/24 110/194/24
f 112/198/25 111/196/25 107/189/25 108/191/25
f 110/195/22 109/192/22 113/199/22 114/201/22
f 116/205/23 115/203/23 111/196/23 112/198/23
f 114/202/20 113/199/20 117/206/20 118/208/20
f 120/212/21 119/210/21 115/203/21 116/205/21
f 118/209/18 117/206/18 1/1/18 2/5/18
f 4/9/19 3/6/19 119/210/19 120/212/19
f 1/1/50 117/206/50 113/199/50 109/192/50 105/185/50 101/178/50 97/171/50 93/164/50 33/59/50 89/157/50 85/150/50 81/143/50 77/136/50 73/129/50 69/122/50 65/115/50
