# Blender 3.4.1
# www.blender.org
mtllib lamp_part4.mtl
o Cylinder.010
v 0.344825 6.246319 -0.867654
v 0.344825 6.768486 -0.184891
v 0.498772 6.246319 -0.852491
v 0.365572 6.768486 -0.182848
v 0.646804 6.246319 -0.807586
v 0.385522 6.768486 -0.176796
v 0.783230 6.246319 -0.734665
v 0.403908 6.768486 -0.166969
v 0.902809 6.246319 -0.636529
v 0.420023 6.768486 -0.153743
v 1.000945 6.246319 -0.516950
v 0.433249 6.768486 -0.137628
v 1.073866 6.246319 -0.380524
v 0.443076 6.768486 -0.119242
v 1.118771 6.246319 -0.232492
v 0.449128 6.768486 -0.099292
v 1.133934 6.246319 -0.078545
v 0.451171 6.768486 -0.078545
v 1.118771 6.246319 0.075403
v 0.449128 6.768486 -0.057798
v 1.073866 6.246319 0.223434
v 0.443076 6.768486 -0.037848
v 1.000945 6.246319 0.359861
v 0.433249 6.768486 -0.019462
v 0.902809 6.246319 0.479440
v 0.420023 6.768486 -0.003346
v 0.783230 6.246319 0.577575
v 0.403908 6.768486 0.009879
v 0.646804 6.246319 0.650497
v 0.385522 6.768486 0.019707
v 0.498772 6.246319 0.695402
v 0.365572 6.768486 0.025759
v 0.344825 6.246319 0.710564
v 0.344825 6.768486 0.027802
v 0.190877 6.246319 0.695402
v 0.324077 6.768486 0.025759
v 0.042846 6.246319 0.650497
v 0.304128 6.768486 0.019707
v -0.093581 6.246319 0.577575
v 0.285742 6.768486 0.009879
v -0.213160 6.246319 0.479440
v 0.269626 6.768486 -0.003346
v -0.311295 6.246319 0.359861
v 0.256401 6.768486 -0.019462
v -0.384217 6.246319 0.223434
v 0.246573 6.768486 -0.037848
v -0.429122 6.246319 0.075403
v 0.240521 6.768486 -0.057798
v -0.444284 6.246319 -0.078545
v 0.238478 6.768486 -0.078545
v -0.429122 6.246319 -0.232492
v 0.240521 6.768486 -0.099292
v -0.384217 6.246319 -0.380524
v 0.246573 6.768486 -0.119242
v -0.311295 6.246319 -0.516950
v 0.256401 6.768486 -0.137628
v -0.213160 6.246319 -0.636529
v 0.269626 6.768486 -0.153743
v -0.093581 6.246319 -0.734665
v 0.285742 6.768486 -0.166969
v 0.042846 6.246319 -0.807586
v 0.304128 6.768486 -0.176796
v 0.190877 6.246319 -0.852491
v 0.324077 6.768486 -0.182848
v 0.344825 6.246319 -0.942296
v 0.513334 6.246319 -0.925699
v 0.675368 6.246319 -0.876547
v 0.824699 6.246319 -0.796727
v 0.955589 6.246319 -0.689309
v 1.063007 6.246319 -0.558419
v 1.142827 6.246319 -0.409088
v 1.191979 6.246319 -0.247054
v 1.208576 6.246319 -0.078545
v 1.191979 6.246319 0.089965
v 1.142827 6.246319 0.251998
v 1.063007 6.246319 0.401330
v 0.955589 6.246319 0.532219
v 0.824699 6.246319 0.639638
v 0.675368 6.246319 0.719457
v 0.513334 6.246319 0.768609
v 0.344825 6.246319 0.785206
v 0.176315 6.246319 0.768609
v 0.014282 6.246319 0.719457
v -0.135050 6.246319 0.639638
v -0.265939 6.246319 0.532219
v -0.373358 6.246319 0.401330
v -0.453177 6.246319 0.251998
v -0.502329 6.246319 0.089965
v -0.518926 6.246319 -0.078545
v -0.502329 6.246319 -0.247054
v -0.453177 6.246319 -0.409088
v -0.373358 6.246319 -0.558419
v -0.265939 6.246319 -0.689309
v -0.135050 6.246319 -0.796727
v 0.014282 6.246319 -0.876547
v 0.176315 6.246319 -0.925699
v 0.344825 6.246319 -0.867654
v 0.498772 6.246319 -0.852491
v 0.646804 6.246319 -0.807586
v 0.783230 6.246319 -0.734665
v 0.902809 6.246319 -0.636529
v 1.000945 6.246319 -0.516950
v 1.073866 6.246319 -0.380524
v 1.118771 6.246319 -0.232492
v 1.133934 6.246319 -0.078545
v 1.118771 6.246319 0.075403
v 1.073866 6.246319 0.223434
v 1.000945 6.246319 0.359861
v 0.902809 6.246319 0.479440
v 0.783230 6.246319 0.577575
v 0.646804 6.246319 0.650497
v 0.498772 6.246319 0.695402
v 0.344825 6.246319 0.710564
v 0.190877 6.246319 0.695402
v 0.042846 6.246319 0.650497
v -0.093581 6.246319 0.577575
v -0.213160 6.246319 0.479440
v -0.311295 6.246319 0.359861
v -0.384217 6.246319 0.223434
v -0.429122 6.246319 0.075403
v -0.444284 6.246319 -0.078545
v -0.429122 6.246319 -0.232492
v -0.384217 6.246319 -0.380524
v -0.311295 6.246319 -0.516950
v -0.213160 6.246319 -0.636529
v -0.093581 6.246319 -0.734665
v 0.042846 6.246319 -0.807586
v 0.190877 6.246319 -0.852491
v 0.344825 6.246319 -0.867654
v 0.498772 6.246319 -0.852491
v 0.646804 6.246319 -0.807586
v 0.783230 6.246319 -0.734665
v 0.902809 6.246319 -0.636529
v 1.000945 6.246319 -0.516950
v 1.073866 6.246319 -0.380524
v 1.118771 6.246319 -0.232492
v 1.133934 6.246319 -0.078545
v 1.118771 6.246319 0.075403
v 1.073866 6.246319 0.223434
v 1.000945 6.246319 0.359861
v 0.902809 6.246319 0.479440
v 0.783230 6.246319 0.577575
v 0.646804 6.246319 0.650497
v 0.498772 6.246319 0.695402
v 0.344825 6.246319 0.710564
v 0.190877 6.246319 0.695402
v 0.042846 6.246319 0.650497
v -0.093581 6.246319 0.577575
v -0.213160 6.246319 0.479440
v -0.311295 6.246319 0.359861
v -0.384217 6.246319 0.223434
v -0.429122 6.246319 0.075403
v -0.444284 6.246319 -0.078545
v -0.429122 6.246319 -0.232492
v -0.384217 6.246319 -0.380524
v -0.311295 6.246319 -0.516950
v -0.213160 6.246319 -0.636529
v -0.093581 6.246319 -0.734665
v 0.042846 6.246319 -0.807586
v 0.190877 6.246319 -0.852491
v 0.344825 6.246319 -0.867654
v 0.498772 6.246319 -0.852491
v 0.646804 6.246319 -0.807586
v 0.783230 6.246319 -0.734665
v 0.902809 6.246319 -0.636529
v 1.000945 6.246319 -0.516950
v 1.073866 6.246319 -0.380524
v 1.118771 6.246319 -0.232492
v 1.133934 6.246319 -0.078545
v 1.118771 6.246319 0.075403
v 1.073866 6.246319 0.223434
v 1.000945 6.246319 0.359861
v 0.902809 6.246319 0.479440
v 0.783230 6.246319 0.577575
v 0.646804 6.246319 0.650497
v 0.498772 6.246319 0.695402
v 0.344825 6.246319 0.710564
v 0.190877 6.246319 0.695402
v 0.042846 6.246319 0.650497
v -0.093581 6.246319 0.577575
v -0.213160 6.246319 0.479440
v -0.311295 6.246319 0.359861
v -0.384217 6.246319 0.223434
v -0.429122 6.246319 0.075403
v -0.444284 6.246319 -0.078545
v -0.429122 6.246319 -0.232492
v -0.384217 6.246319 -0.380524
v -0.311295 6.246319 -0.516950
v -0.213160 6.246319 -0.636529
v -0.093581 6.246319 -0.734665
v 0.042846 6.246319 -0.807586
v 0.190877 6.246319 -0.852491
v 0.344825 6.743423 -0.186613
v 0.365908 6.743423 -0.184536
v 0.386181 6.743423 -0.178387
v 0.404864 6.743423 -0.168400
v 0.421240 6.743423 -0.154960
v 0.434680 6.743423 -0.138584
v 0.444667 6.743423 -0.119901
v 0.450816 6.743423 -0.099628
v 0.452893 6.743423 -0.078545
v 0.450816 6.743423 -0.057462
v 0.444667 6.743423 -0.037189
v 0.434680 6.743423 -0.018505
v 0.421240 6.743423 -0.002129
v 0.404864 6.743423 0.011311
v 0.386181 6.743423 0.021297
v 0.365908 6.743423 0.027447
v 0.344825 6.743423 0.029523
v 0.323742 6.743423 0.027447
v 0.303469 6.743423 0.021297
v 0.284785 6.743423 0.011311
v 0.268409 6.743423 -0.002129
v 0.254969 6.743423 -0.018505
v 0.244983 6.743423 -0.037189
v 0.238833 6.743423 -0.057462
v 0.236757 6.743423 -0.078545
v 0.238833 6.743423 -0.099628
v 0.244983 6.743423 -0.119901
v 0.254969 6.743423 -0.138584
v 0.268409 6.743423 -0.154960
v 0.284785 6.743423 -0.168400
v 0.303469 6.743423 -0.178387
v 0.323742 6.743423 -0.184536
vn 0.0558 0.8220 -0.5667
vn 0.1653 0.8220 -0.5449
vn 0.2684 0.8220 -0.5022
vn 0.3613 0.8220 -0.4402
vn 0.4402 0.8220 -0.3613
vn 0.5022 0.8220 -0.2684
vn 0.5449 0.8220 -0.1653
vn 0.5667 0.8220 -0.0558
vn 0.5667 0.8220 0.0558
vn 0.5449 0.8220 0.1653
vn 0.5022 0.8220 0.2684
vn 0.4402 0.8220 0.3613
vn 0.3613 0.8220 0.4402
vn 0.2684 0.8220 0.5022
vn 0.1653 0.8220 0.5449
vn 0.0558 0.8220 0.5667
vn -0.0558 0.8220 0.5667
vn -0.1653 0.8220 0.5449
vn -0.2684 0.8220 0.5022
vn -0.3613 0.8220 0.4402
vn -0.4402 0.8220 0.3613
vn -0.5022 0.8220 0.2684
vn -0.5449 0.8220 0.1653
vn -0.5667 0.8220 0.0558
vn -0.5667 0.8220 -0.0558
vn -0.5449 0.8220 -0.1653
vn -0.5022 0.8220 -0.2684
vn -0.4402 0.8220 -0.3613
vn -0.3613 0.8220 -0.4402
vn -0.2684 0.8220 -0.5022
vn -0.0000 1.0000 -0.0000
vn -0.1653 0.8220 -0.5449
vn -0.0558 0.8220 -0.5667
vn -0.0000 -1.0000 -0.0000
vn -0.5660 -0.8064 -0.1717
vn 0.5886 -0.8064 -0.0580
vn -0.5216 -0.8064 -0.2788
vn 0.5886 -0.8064 0.0580
vn -0.4572 -0.8064 -0.3752
vn 0.5660 -0.8064 0.1717
vn -0.3752 -0.8064 -0.4572
vn 0.5216 -0.8064 0.2788
vn -0.2788 -0.8064 -0.5216
vn -0.0580 -0.8064 0.5886
vn 0.4572 -0.8064 0.3752
vn -0.1717 -0.8064 -0.5660
vn -0.1717 -0.8064 0.5660
vn 0.3752 -0.8064 0.4572
vn -0.0580 -0.8064 -0.5886
vn -0.2788 -0.8064 0.5216
vn 0.2788 -0.8064 0.5216
vn 0.0580 -0.8064 -0.5886
vn -0.3752 -0.8064 0.4572
vn 0.1717 -0.8064 0.5660
vn 0.1717 -0.8064 -0.5660
vn -0.4572 -0.8064 0.3752
vn 0.0580 -0.8064 0.5886
vn 0.2788 -0.8064 -0.5216
vn -0.5216 -0.8064 0.2788
vn 0.3752 -0.8064 -0.4572
vn -0.5660 -0.8064 0.1717
vn 0.4572 -0.8064 -0.3752
vn -0.5886 -0.8064 0.0580
vn 0.5216 -0.8064 -0.2788
vn -0.5886 -0.8064 -0.0580
vn 0.5660 -0.8064 -0.1717
vt 0.750000 0.469260
vt 1.000000 1.000000
vt 0.250000 0.490000
vt 0.000000 1.000000
vt 0.792776 0.465047
vt 0.968750 1.000000
vt 0.296822 0.485388
vt 0.833907 0.452570
vt 0.937500 1.000000
vt 0.341844 0.471731
vt 0.871815 0.432308
vt 0.906250 1.000000
vt 0.383337 0.449553
vt 0.905041 0.405040
vt 0.875000 1.000000
vt 0.419706 0.419706
vt 0.932308 0.371815
vt 0.843750 1.000000
vt 0.449553 0.383337
vt 0.952570 0.333907
vt 0.812500 1.000000
vt 0.471731 0.341844
vt 0.965047 0.292776
vt 0.781250 1.000000
vt 0.485388 0.296822
vt 0.969260 0.250000
vt 0.750000 1.000000
vt 0.490000 0.250000
vt 0.965047 0.207225
vt 0.718750 1.000000
vt 0.485388 0.203178
vt 0.952570 0.166093
vt 0.687500 1.000000
vt 0.471731 0.158156
vt 0.932308 0.128186
vt 0.656250 1.000000
vt 0.449553 0.116663
vt 0.905041 0.094960
vt 0.625000 1.000000
vt 0.419706 0.080294
vt 0.871815 0.067692
vt 0.593750 1.000000
vt 0.383337 0.050447
vt 0.833907 0.047430
vt 0.562500 1.000000
vt 0.341844 0.028269
vt 0.792776 0.034953
vt 0.531250 1.000000
vt 0.296822 0.014612
vt 0.750000 0.030740
vt 0.500000 1.000000
vt 0.250000 0.010000
vt 0.707225 0.034953
vt 0.468750 1.000000
vt 0.203178 0.014612
vt 0.666093 0.047430
vt 0.437500 1.000000
vt 0.158156 0.028269
vt 0.628186 0.067692
vt 0.406250 1.000000
vt 0.116663 0.050447
vt 0.594960 0.094960
vt 0.375000 1.000000
vt 0.080294 0.080294
vt 0.567692 0.128186
vt 0.343750 1.000000
vt 0.050447 0.116663
vt 0.547430 0.166093
vt 0.312500 1.000000
vt 0.028269 0.158156
vt 0.534953 0.207224
vt 0.281250 1.000000
vt 0.014612 0.203178
vt 0.530740 0.250000
vt 0.250000 1.000000
vt 0.010000 0.250000
vt 0.534953 0.292776
vt 0.218750 1.000000
vt 0.014612 0.296822
vt 0.547430 0.333907
vt 0.187500 1.000000
vt 0.028269 0.341844
vt 0.567692 0.371814
vt 0.156250 1.000000
vt 0.050447 0.383337
vt 0.594960 0.405040
vt 0.125000 1.000000
vt 0.080294 0.419706
vt 0.628186 0.432308
vt 0.093750 1.000000
vt 0.116663 0.449553
vt 0.666093 0.452570
vt 0.158156 0.471731
vt 0.062500 1.000000
vt 0.707224 0.465047
vt 0.203178 0.485388
vt 0.031250 1.000000
vt 1.000000 0.500000
vt 0.000000 0.500000
vt 0.750000 0.490000
vt 0.968750 0.500000
vt 0.796822 0.485388
vt 0.937500 0.500000
vt 0.841844 0.471731
vt 0.906250 0.500000
vt 0.883337 0.449553
vt 0.875000 0.500000
vt 0.919706 0.419706
vt 0.843750 0.500000
vt 0.949553 0.383337
vt 0.812500 0.500000
vt 0.971731 0.341844
vt 0.781250 0.500000
vt 0.985388 0.296822
vt 0.750000 0.500000
vt 0.990000 0.250000
vt 0.718750 0.500000
vt 0.985388 0.203178
vt 0.687500 0.500000
vt 0.971731 0.158156
vt 0.656250 0.500000
vt 0.949553 0.116663
vt 0.625000 0.500000
vt 0.919706 0.080294
vt 0.593750 0.500000
vt 0.883337 0.050447
vt 0.562500 0.500000
vt 0.841844 0.028269
vt 0.531250 0.500000
vt 0.796822 0.014612
vt 0.500000 0.500000
vt 0.750000 0.010000
vt 0.468750 0.500000
vt 0.703178 0.014612
vt 0.437500 0.500000
vt 0.658156 0.028269
vt 0.406250 0.500000
vt 0.616663 0.050447
vt 0.375000 0.500000
vt 0.580294 0.080294
vt 0.343750 0.500000
vt 0.550447 0.116663
vt 0.312500 0.500000
vt 0.528269 0.158156
vt 0.281250 0.500000
vt 0.514612 0.203178
vt 0.250000 0.500000
vt 0.510000 0.250000
vt 0.218750 0.500000
vt 0.514612 0.296822
vt 0.187500 0.500000
vt 0.528269 0.341844
vt 0.156250 0.500000
vt 0.550447 0.383337
vt 0.125000 0.500000
vt 0.580294 0.419706
vt 0.093750 0.500000
vt 0.616663 0.449553
vt 0.062500 0.500000
vt 0.658156 0.471731
vt 0.031250 0.500000
vt 0.703178 0.485388
vt 0.750000 0.469260
vt 0.792776 0.465047
vt 0.833907 0.452570
vt 0.871815 0.432308
vt 0.905041 0.405040
vt 0.932308 0.371815
vt 0.952570 0.333907
vt 0.965047 0.292776
vt 0.969260 0.250000
vt 0.965047 0.207225
vt 0.952570 0.166093
vt 0.932308 0.128186
vt 0.905041 0.094960
vt 0.871815 0.067692
vt 0.833907 0.047430
vt 0.792776 0.034953
vt 0.750000 0.030740
vt 0.707225 0.034953
vt 0.666093 0.047430
vt 0.628186 0.067692
vt 0.594960 0.094960
vt 0.567692 0.128186
vt 0.547430 0.166093
vt 0.534953 0.207224
vt 0.530740 0.250000
vt 0.534953 0.292776
vt 0.547430 0.333907
vt 0.567692 0.371814
vt 0.594960 0.405040
vt 0.628186 0.432308
vt 0.666093 0.452570
vt 0.707224 0.465047
vt 0.750000 0.469260
vt 0.792776 0.465047
vt 0.833907 0.452570
vt 0.871815 0.432308
vt 0.905041 0.405040
vt 0.932308 0.371815
vt 0.952570 0.333907
vt 0.965047 0.292776
vt 0.969260 0.250000
vt 0.965047 0.207225
vt 0.952570 0.166093
vt 0.932308 0.128186
vt 0.905041 0.094960
vt 0.871815 0.067692
vt 0.833907 0.047430
vt 0.792776 0.034953
vt 0.750000 0.030740
vt 0.707225 0.034953
vt 0.666093 0.047430
vt 0.628186 0.067692
vt 0.594960 0.094960
vt 0.567692 0.128186
vt 0.547430 0.166093
vt 0.534953 0.207224
vt 0.530740 0.250000
vt 0.534953 0.292776
vt 0.547430 0.333907
vt 0.567692 0.371814
vt 0.594960 0.405040
vt 0.628186 0.432308
vt 0.666093 0.452570
vt 0.707224 0.465047
vt 0.750000 0.469260
vt 0.792776 0.465047
vt 0.833907 0.452570
vt 0.871815 0.432308
vt 0.905041 0.405040
vt 0.932308 0.371815
vt 0.952570 0.333907
vt 0.965047 0.292776
vt 0.969260 0.250000
vt 0.965047 0.207225
vt 0.952570 0.166093
vt 0.932308 0.128186
vt 0.905041 0.094960
vt 0.871815 0.067692
vt 0.833907 0.047430
vt 0.792776 0.034953
vt 0.750000 0.030740
vt 0.707225 0.034953
vt 0.666093 0.047430
vt 0.628186 0.067692
vt 0.594960 0.094960
vt 0.567692 0.128186
vt 0.547430 0.166093
vt 0.534953 0.207224
vt 0.530740 0.250000
vt 0.534953 0.292776
vt 0.547430 0.333907
vt 0.567692 0.371814
vt 0.594960 0.405040
vt 0.628186 0.432308
vt 0.666093 0.452570
vt 0.707224 0.465047
vt 0.750000 0.469260
vt 0.792776 0.465047
vt 0.833907 0.452570
vt 0.871815 0.432308
vt 0.905041 0.405040
vt 0.932308 0.371815
vt 0.952570 0.333907
vt 0.965047 0.292776
vt 0.969260 0.250000
vt 0.965047 0.207225
vt 0.952570 0.166093
vt 0.932308 0.128186
vt 0.905041 0.094960
vt 0.871815 0.067692
vt 0.833907 0.047430
vt 0.792776 0.034953
vt 0.750000 0.030740
vt 0.707225 0.034953
vt 0.666093 0.047430
vt 0.628186 0.067692
vt 0.594960 0.094960
vt 0.567692 0.128186
vt 0.547430 0.166093
vt 0.534953 0.207224
vt 0.530740 0.250000
vt 0.534953 0.292776
vt 0.547430 0.333907
vt 0.567692 0.371814
vt 0.594960 0.405040
vt 0.628186 0.432308
vt 0.666093 0.452570
vt 0.707224 0.465047
s 0
f 65/98/1 2/2/1 4/6/1 66/101/1
f 66/101/2 4/6/2 6/9/2 67/103/2
f 67/103/3 6/9/3 8/12/3 68/105/3
f 68/105/4 8/12/4 10/15/4 69/107/4
f 69/107/5 10/15/5 12/18/5 70/109/5
f 70/109/6 12/18/6 14/21/6 71/111/6
f 71/111/7 14/21/7 16/24/7 72/113/7
f 72/113/8 16/24/8 18/27/8 73/115/8
f 73/115/9 18/27/9 20/30/9 74/117/9
f 74/117/10 20/30/10 22/33/10 75/119/10
f 75/119/11 22/33/11 24/36/11 76/121/11
f 76/121/12 24/36/12 26/39/12 77/123/12
f 77/123/13 26/39/13 28/42/13 78/125/13
f 78/125/14 28/42/14 30/45/14 79/127/14
f 79/127/15 30/45/15 32/48/15 80/129/15
f 80/129/16 32/48/16 34/51/16 81/131/16
f 81/131/17 34/51/17 36/54/17 82/133/17
f 82/133/18 36/54/18 38/57/18 83/135/18
f 83/135/19 38/57/19 40/60/19 84/137/19
f 84/137/20 40/60/20 42/63/20 85/139/20
f 85/139/21 42/63/21 44/66/21 86/141/21
f 86/141/22 44/66/22 46/69/22 87/143/22
f 87/143/23 46/69/23 48/72/23 88/145/23
f 88/145/24 48/72/24 50/75/24 89/147/24
f 89/147/25 50/75/25 52/78/25 90/149/25
f 90/149/26 52/78/26 54/81/26 91/151/26
f 91/151/27 54/81/27 56/84/27 92/153/27
f 92/153/28 56/84/28 58/87/28 93/155/28
f 93/155/29 58/87/29 60/90/29 94/157/29
f 94/157/30 60/90/30 62/94/30 95/159/30
f 4/7/31 2/3/31 64/96/31 62/93/31 60/91/31 58/88/31 56/85/31 54/82/31 52/79/31 50/76/31 48/73/31 46/70/31 44/67/31 42/64/31 40/61/31 38/58/31 36/55/31 34/52/31 32/49/31 30/46/31 28/43/31 26/40/31 24/37/31 22/34/31 20/31/31 18/28/31 16/25/31 14/22/31 12/19/31 10/16/31 8/13/31 6/10/31
f 95/159/32 62/94/32 64/97/32 96/161/32
f 96/161/33 64/97/33 2/4/33 65/99/33
f 55/83/31 57/86/31 125/191/31 124/190/31
f 3/5/34 1/1/34 65/100/34 66/102/34
f 5/8/34 3/5/34 66/102/34 67/104/34
f 7/11/34 5/8/34 67/104/34 68/106/34
f 9/14/34 7/11/34 68/106/34 69/108/34
f 11/17/34 9/14/34 69/108/34 70/110/34
f 13/20/34 11/17/34 70/110/34 71/112/34
f 15/23/34 13/20/34 71/112/34 72/114/34
f 17/26/34 15/23/34 72/114/34 73/116/34
f 19/29/34 17/26/34 73/116/34 74/118/34
f 21/32/34 19/29/34 74/118/34 75/120/34
f 23/35/34 21/32/34 75/120/34 76/122/34
f 25/38/34 23/35/34 76/122/34 77/124/34
f 27/41/34 25/38/34 77/124/34 78/126/34
f 29/44/34 27/41/34 78/126/34 79/128/34
f 31/47/34 29/44/34 79/128/34 80/130/34
f 33/50/34 31/47/34 80/130/34 81/132/34
f 35/53/34 33/50/34 81/132/34 82/134/34
f 37/56/34 35/53/34 82/134/34 83/136/34
f 39/59/34 37/56/34 83/136/34 84/138/34
f 41/62/34 39/59/34 84/138/34 85/140/34
f 43/65/34 41/62/34 85/140/34 86/142/34
f 45/68/34 43/65/34 86/142/34 87/144/34
f 47/71/34 45/68/34 87/144/34 88/146/34
f 49/74/34 47/71/34 88/146/34 89/148/34
f 51/77/34 49/74/34 89/148/34 90/150/34
f 53/80/34 51/77/34 90/150/34 91/152/34
f 55/83/34 53/80/34 91/152/34 92/154/34
f 57/86/34 55/83/34 92/154/34 93/156/34
f 59/89/34 57/86/34 93/156/34 94/158/34
f 61/92/34 59/89/34 94/158/34 95/160/34
f 63/95/34 61/92/34 95/160/34 96/162/34
f 1/1/34 63/95/34 96/162/34 65/100/34
f 127/193/31 128/194/31 160/226/31 159/225/31
f 29/44/31 31/47/31 112/178/31 111/177/31
f 3/5/31 5/8/31 99/165/31 98/164/31
f 57/86/31 59/89/31 126/192/31 125/191/31
f 31/47/31 33/50/31 113/179/31 112/178/31
f 5/8/31 7/11/31 100/166/31 99/165/31
f 59/89/31 61/92/31 127/193/31 126/192/31
f 33/50/31 35/53/31 114/180/31 113/179/31
f 7/11/31 9/14/31 101/167/31 100/166/31
f 61/92/31 63/95/31 128/194/31 127/193/31
f 35/53/31 37/56/31 115/181/31 114/180/31
f 9/14/31 11/17/31 102/168/31 101/167/31
f 63/95/31 1/1/31 97/163/31 128/194/31
f 37/56/31 39/59/31 116/182/31 115/181/31
f 11/17/31 13/20/31 103/169/31 102/168/31
f 39/59/31 41/62/31 117/183/31 116/182/31
f 13/20/31 15/23/31 104/170/31 103/169/31
f 41/62/31 43/65/31 118/184/31 117/183/31
f 15/23/31 17/26/31 105/171/31 104/170/31
f 43/65/31 45/68/31 119/185/31 118/184/31
f 17/26/31 19/29/31 106/172/31 105/171/31
f 45/68/31 47/71/31 120/186/31 119/185/31
f 19/29/31 21/32/31 107/173/31 106/172/31
f 47/71/31 49/74/31 121/187/31 120/186/31
f 21/32/31 23/35/31 108/174/31 107/173/31
f 49/74/31 51/77/31 122/188/31 121/187/31
f 23/35/31 25/38/31 109/175/31 108/174/31
f 51/77/31 53/80/31 123/189/31 122/188/31
f 25/38/31 27/41/31 110/176/31 109/175/31
f 53/80/31 55/83/31 124/190/31 123/189/31
f 27/41/31 29/44/31 111/177/31 110/176/31
f 1/1/31 3/5/31 98/164/31 97/163/31
f 149/215/31 150/216/31 182/248/31 181/247/31
f 114/180/31 115/181/31 147/213/31 146/212/31
f 101/167/31 102/168/31 134/200/31 133/199/31
f 128/194/31 97/163/31 129/195/31 160/226/31
f 115/181/31 116/182/31 148/214/31 147/213/31
f 102/168/31 103/169/31 135/201/31 134/200/31
f 116/182/31 117/183/31 149/215/31 148/214/31
f 103/169/31 104/170/31 136/202/31 135/201/31
f 117/183/31 118/184/31 150/216/31 149/215/31
f 104/170/31 105/171/31 137/203/31 136/202/31
f 118/184/31 119/185/31 151/217/31 150/216/31
f 105/171/31 106/172/31 138/204/31 137/203/31
f 119/185/31 120/186/31 152/218/31 151/217/31
f 106/172/31 107/173/31 139/205/31 138/204/31
f 120/186/31 121/187/31 153/219/31 152/218/31
f 107/173/31 108/174/31 140/206/31 139/205/31
f 121/187/31 122/188/31 154/220/31 153/219/31
f 108/174/31 109/175/31 141/207/31 140/206/31
f 122/188/31 123/189/31 155/221/31 154/220/31
f 109/175/31 110/176/31 142/208/31 141/207/31
f 123/189/31 124/190/31 156/222/31 155/221/31
f 110/176/31 111/177/31 143/209/31 142/208/31
f 97/163/31 98/164/31 130/196/31 129/195/31
f 124/190/31 125/191/31 157/223/31 156/222/31
f 111/177/31 112/178/31 144/210/31 143/209/31
f 98/164/31 99/165/31 131/197/31 130/196/31
f 125/191/31 126/192/31 158/224/31 157/223/31
f 112/178/31 113/179/31 145/211/31 144/210/31
f 99/165/31 100/166/31 132/198/31 131/197/31
f 126/192/31 127/193/31 159/225/31 158/224/31
f 113/179/31 114/180/31 146/212/31 145/211/31
f 100/166/31 101/167/31 133/199/31 132/198/31
f 170/236/35 171/237/35 203/269/35 202/268/35
f 136/202/31 137/203/31 169/235/31 168/234/31
f 150/216/31 151/217/31 183/249/31 182/248/31
f 137/203/31 138/204/31 170/236/31 169/235/31
f 151/217/31 152/218/31 184/250/31 183/249/31
f 138/204/31 139/205/31 171/237/31 170/236/31
f 152/218/31 153/219/31 185/251/31 184/250/31
f 139/205/31 140/206/31 172/238/31 171/237/31
f 153/219/31 154/220/31 186/252/31 185/251/31
f 140/206/31 141/207/31 173/239/31 172/238/31
f 154/220/31 155/221/31 187/253/31 186/252/31
f 141/207/31 142/208/31 174/240/31 173/239/31
f 155/221/31 156/222/31 188/254/31 187/253/31
f 142/208/31 143/209/31 175/241/31 174/240/31
f 129/195/31 130/196/31 162/228/31 161/227/31
f 156/222/31 157/223/31 189/255/31 188/254/31
f 143/209/31 144/210/31 176/242/31 175/241/31
f 130/196/31 131/197/31 163/229/31 162/228/31
f 157/223/31 158/224/31 190/256/31 189/255/31
f 144/210/31 145/211/31 177/243/31 176/242/31
f 131/197/31 132/198/31 164/230/31 163/229/31
f 158/224/31 159/225/31 191/257/31 190/256/31
f 145/211/31 146/212/31 178/244/31 177/243/31
f 132/198/31 133/199/31 165/231/31 164/230/31
f 159/225/31 160/226/31 192/258/31 191/257/31
f 146/212/31 147/213/31 179/245/31 178/244/31
f 133/199/31 134/200/31 166/232/31 165/231/31
f 160/226/31 129/195/31 161/227/31 192/258/31
f 147/213/31 148/214/31 180/246/31 179/245/31
f 134/200/31 135/201/31 167/233/31 166/232/31
f 148/214/31 149/215/31 181/247/31 180/246/31
f 135/201/31 136/202/31 168/234/31 167/233/31
f 193/259/34 194/260/34 195/261/34 196/262/34 197/263/34 198/264/34 199/265/34 200/266/34 201/267/34 202/268/34 203/269/34 204/270/34 205/271/34 206/272/34 207/273/34 208/274/34 209/275/34 210/276/34 211/277/34 212/278/34 213/279/34 214/280/34 215/281/34 216/282/34 217/283/34 218/284/34 219/285/34 220/286/34 221/287/34 222/288/34 223/289/34 224/290/34
f 184/250/36 185/251/36 217/283/36 216/282/36
f 171/237/37 172/238/37 204/270/37 203/269/37
f 185/251/38 186/252/38 218/284/38 217/283/38
f 172/238/39 173/239/39 205/271/39 204/270/39
f 186/252/40 187/253/40 219/285/40 218/284/40
f 173/239/41 174/240/41 206/272/41 205/271/41
f 187/253/42 188/254/42 220/286/42 219/285/42
f 174/240/43 175/241/43 207/273/43 206/272/43
f 161/227/44 162/228/44 194/260/44 193/259/44
f 188/254/45 189/255/45 221/287/45 220/286/45
f 175/241/46 176/242/46 208/274/46 207/273/46
f 162/228/47 163/229/47 195/261/47 194/260/47
f 189/255/48 190/256/48 222/288/48 221/287/48
f 176/242/49 177/243/49 209/275/49 208/274/49
f 163/229/50 164/230/50 196/262/50 195/261/50
f 190/256/51 191/257/51 223/289/51 222/288/51
f 177/243/52 178/244/52 210/276/52 209/275/52
f 164/230/53 165/231/53 197/263/53 196/262/53
f 191/257/54 192/258/54 224/290/54 223/289/54
f 178/244/55 179/245/55 211/277/55 210/276/55
f 165/231/56 166/232/56 198/264/56 197/263/56
f 192/258/57 161/227/57 193/259/57 224/290/57
f 179/245/58 180/246/58 212/278/58 211/277/58
f 166/232/59 167/233/59 199/265/59 198/264/59
f 180/246/60 181/247/60 213/279/60 212/278/60
f 167/233/61 168/234/61 200/266/61 199/265/61
f 181/247/62 182/248/62 214/280/62 213/279/62
f 168/234/63 169/235/63 201/267/63 200/266/63
f 182/248/64 183/249/64 215/281/64 214/280/64
f 169/235/65 170/236/65 202/268/65 201/267/65
f 183/249/66 184/250/66 216/282/66 215/281/66
