# Blender 3.4.1
# www.blender.org
mtllib roof.mtl
o Plane.009
v -5.646198 7.490812 7.832752
v -5.562198 7.490812 7.944752
v -5.562198 7.532812 7.832752
v 6.269802 7.490812 7.944752
v 6.353802 7.490812 7.832752
v 6.269802 7.532812 7.832752
v -5.646198 7.490812 -7.943248
v -5.562198 7.532812 -7.943248
v -5.562198 7.490812 -8.055248
v 6.353802 7.490812 -7.943248
v 6.269802 7.490812 -8.055248
v 6.269802 7.532812 -7.943248
v -5.646198 6.974812 7.832752
v -5.562198 6.932812 7.832752
v -5.562198 6.974812 7.944752
v 6.269802 6.974812 7.944752
v 6.269802 6.932812 7.832752
v 6.353802 6.974812 7.832752
v -5.646198 6.974812 -7.943248
v -5.562198 6.974812 -8.055248
v -5.562198 6.932812 -7.943248
v 6.353802 6.974812 -7.943248
v 6.269802 6.932812 -7.943248
v 6.269802 6.974812 -8.055248
vn 0.3391 0.6782 0.6519
vn -0.3391 0.6782 0.6519
vn -0.3391 -0.6782 0.6519
vn 0.3391 -0.6782 0.6519
vn -0.1895 0.9715 0.1421
vn 0.1895 0.9715 0.1421
vn 0.1895 0.9715 -0.1421
vn -0.1895 0.9715 -0.1421
vn 0.7682 0.5994 -0.2248
vn 0.7682 0.5994 0.2248
vn 0.7682 -0.5994 0.2248
vn 0.7682 -0.5994 -0.2248
vn -0.3391 0.6782 -0.6519
vn 0.3391 0.6782 -0.6519
vn 0.3391 -0.6782 -0.6519
vn -0.3391 -0.6782 -0.6519
vn -0.1895 -0.9715 0.1421
vn -0.1895 -0.9715 -0.1421
vn 0.1895 -0.9715 -0.1421
vn 0.1895 -0.9715 0.1421
vn -0.7682 0.5994 0.2248
vn -0.7682 0.5994 -0.2248
vn -0.7682 -0.5994 0.2248
vn -0.7682 -0.5994 -0.2248
vt 0.000000 0.007000
vt 0.007000 0.000000
vt 0.007000 0.007000
vt 0.993000 0.000000
vt 1.000000 0.007000
vt 0.993000 0.007000
vt 0.000000 0.993000
vt 0.007000 0.993000
vt 0.007000 1.000000
vt 1.000000 0.993000
vt 0.993000 1.000000
vt 0.993000 0.993000
vt 0.000000 0.007000
vt 0.007000 0.007000
vt 0.007000 0.000000
vt 0.993000 0.000000
vt 0.993000 0.007000
vt 1.000000 0.007000
vt 0.000000 0.993000
vt 0.007000 1.000000
vt 0.007000 0.993000
vt 1.000000 0.993000
vt 0.993000 0.993000
vt 0.993000 1.000000
s 1
f 4/4/1 2/2/2 15/15/3 16/16/4
f 3/3/5 6/6/6 12/12/7 8/8/8
f 10/10/9 5/5/10 18/18/11 22/22/12
f 9/9/13 11/11/14 24/24/15 20/20/16
f 14/14/17 21/21/18 23/23/19 17/17/20
f 1/1/21 2/2/2 3/3/5
f 4/4/1 5/5/10 6/6/6
f 7/7/22 8/8/8 9/9/13
f 10/10/9 11/11/14 12/12/7
f 13/13/23 14/14/17 15/15/3
f 16/16/4 17/17/20 18/18/11
f 19/19/24 20/20/16 21/21/18
f 22/22/12 23/23/19 24/24/15
f 7/7/22 1/1/21 3/3/5 8/8/8
f 2/2/2 4/4/1 6/6/6 3/3/5
f 5/5/10 10/10/9 12/12/7 6/6/6
f 11/11/14 9/9/13 8/8/8 12/12/7
f 21/21/18 14/14/17 13/13/23 19/19/24
f 14/14/17 17/17/20 16/16/4 15/15/3
f 17/17/20 23/23/19 22/22/12 18/18/11
f 23/23/19 21/21/18 20/20/16 24/24/15
f 1/1/21 13/13/23 15/15/3 2/2/2
f 4/4/1 16/16/4 18/18/11 5/5/10
f 9/9/13 20/20/16 19/19/24 7/7/22
f 10/10/9 22/22/12 24/24/15 11/11/14
f 1/1/21 7/7/22 19/19/24 13/13/23
