# Blender 3.4.1
# www.blender.org
mtllib window1.mtl
o window_Cube.001
v 6.439922 6.210552 -2.627021
v 6.439922 6.210553 -6.262952
v 6.439922 3.641932 -2.627022
v 6.439922 3.641932 -6.262953
v 6.081358 6.210552 -2.627021
v 6.081358 6.210553 -6.262952
v 6.081358 3.641932 -2.627022
v 6.081358 3.641932 -6.262953
v 6.427828 6.123947 -6.140360
v 6.427828 6.123947 -2.749610
v 6.427828 3.728535 -2.749611
v 6.427828 3.728535 -6.140360
v 6.093441 6.123947 -6.140360
v 6.093441 6.123947 -2.749610
v 6.093441 3.728535 -2.749611
v 6.093441 3.728535 -6.140360
v 6.439922 4.926242 -2.627021
v 6.081358 4.926242 -2.627021
v 6.427828 4.926242 -2.749610
v 6.093441 4.926242 -2.749610
v 6.439922 4.926242 -6.262953
v 6.081358 4.926242 -6.262953
v 6.427828 4.926242 -6.140360
v 6.093441 4.926242 -6.140360
v 6.439922 6.210553 -4.444987
v 6.081358 6.210553 -4.444987
v 6.427828 6.123947 -4.444987
v 6.093441 6.123947 -4.444987
v 6.439922 3.641932 -4.444987
v 6.081358 3.641932 -4.444987
v 6.427828 3.728535 -4.444987
v 6.093441 3.728535 -4.444987
v 6.260641 3.728535 -2.749611
v 6.260641 3.728535 -6.140360
v 6.260641 6.123947 -2.749610
v 6.260641 6.123947 -6.140360
v 6.094004 4.926242 -2.749610
v 6.260641 4.978816 -2.749610
v 6.427265 4.926242 -2.749610
v 6.260641 4.873668 -2.749610
v 6.094004 4.926242 -6.140360
v 6.260641 4.978816 -6.140360
v 6.427265 4.926242 -6.140360
v 6.260641 4.873669 -6.140360
v 6.094004 6.123947 -4.444987
v 6.260641 6.123947 -4.373944
v 6.427265 6.123947 -4.444987
v 6.260641 6.123947 -4.516029
v 6.094004 3.728535 -4.444987
v 6.260641 3.728535 -4.373945
v 6.427265 3.728535 -4.444987
v 6.260641 3.728535 -4.516030
vn -0.0000 -1.0000 -0.0000
vn -0.0000 -0.0000 1.0000
vn -0.0000 -0.0000 -1.0000
vn -0.0000 1.0000 -0.0000
vn -0.9904 -0.1382 -0.0000
vn 0.9952 -0.0000 0.0982
vn 0.9904 -0.1383 -0.0000
vn -0.9904 0.1382 -0.0000
vn -0.9952 -0.0000 -0.0981
vn 0.9904 0.1383 -0.0000
vn 0.9952 -0.0000 -0.0982
vn -0.9952 -0.0000 0.0981
vn 0.3922 -0.0000 -0.9199
vn 0.3922 -0.0000 0.9199
vn 0.3009 0.9537 -0.0000
vn 0.3009 -0.9537 -0.0000
vn -0.3009 -0.9537 -0.0000
vn -0.3009 0.9537 -0.0000
vn -0.3922 -0.0000 -0.9199
vn -0.3922 -0.0000 0.9199
vt 0.000000 0.000000
vt 0.000000 0.000000
vt 0.000000 0.000000
vt 0.000000 0.000000
vt 0.000000 0.000000
vt 0.000000 0.000000
vt 0.000000 0.000000
vt 0.000000 0.000000
vt 0.000000 0.000000
vt 0.000000 0.000000
vt 0.000000 0.000000
vt 0.000000 0.000000
vt 0.000000 0.000000
vt 0.000000 0.000000
vt 0.000000 0.000000
vt 0.000000 0.000000
vt 0.000000 0.000000
vt 0.000000 0.000000
vt 0.000000 0.000000
vt 0.000000 0.000000
vt 0.000000 0.000000
vt 0.000000 0.000000
vt 0.000000 0.000000
vt 0.000000 0.000000
vt 0.000000 0.000000
vt 0.000000 0.000000
vt 0.000000 0.000000
vt 0.000000 0.000000
vt 0.000000 0.000000
vt 0.000000 0.000000
vt 0.000000 0.000000
vt 0.000000 0.000000
vt 0.000000 0.000000
vt 0.000000 0.000000
vt 0.000000 0.000000
vt 0.000000 0.000000
vt 0.000000 0.000000
vt 0.000000 0.000000
vt 0.000000 0.000000
vt 0.000000 0.000000
vt 0.000000 0.000000
vt 0.000000 0.000000
vt 0.000000 0.000000
vt 0.000000 0.000000
vt 0.000000 0.000000
vt 0.000000 0.000000
vt 0.000000 0.000000
vt 0.000000 0.000000
vt 0.000000 0.000000
vt 0.000000 0.000000
vt 0.000000 0.000000
vt 0.000000 0.000000
s 0
usemtl Material.011
f 29/29/1 30/30/1 8/8/1 4/4/1
f 17/17/2 18/18/2 7/7/2 3/3/2
f 21/21/3 4/4/3 8/8/3 22/22/3
f 25/25/4 2/2/4 6/6/4 26/26/4
f 36/36/2 13/13/2 24/24/2 41/41/2 42/42/2
f 35/35/1 14/14/1 28/28/1 45/45/1 46/46/1
f 33/33/4 50/50/4 49/49/4 32/32/4 15/15/4
f 26/26/5 28/28/5 14/14/5 5/5/5
f 21/21/6 23/23/6 12/12/6 4/4/6
f 25/25/7 27/27/7 9/9/7 2/2/7
f 30/30/8 7/7/8 15/15/8 32/32/8
f 18/18/9 5/5/9 14/14/9 20/20/9
f 29/29/10 4/4/10 12/12/10 31/31/10
f 17/17/11 3/3/11 11/11/11 19/19/11
f 22/22/12 24/24/12 13/13/12 6/6/12
f 1/1/11 17/17/11 19/19/11 10/10/11
f 7/7/9 18/18/9 20/20/9 15/15/9
f 19/19/3 11/11/3 33/33/3 40/40/3 39/39/3
f 1/1/2 5/5/2 18/18/2 17/17/2
f 8/8/12 16/16/12 24/24/12 22/22/12
f 2/2/6 9/9/6 23/23/6 21/21/6
f 23/23/2 43/43/2 44/44/2 34/34/2 12/12/2
f 2/2/3 21/21/3 22/22/3 6/6/3
f 1/1/7 10/10/7 27/27/7 25/25/7
f 6/6/5 13/13/5 28/28/5 26/26/5
f 27/27/1 47/47/1 48/48/1 36/36/1 9/9/1
f 1/1/4 25/25/4 26/26/4 5/5/4
f 3/3/10 29/29/10 31/31/10 11/11/10
f 8/8/8 30/30/8 32/32/8 16/16/8
f 31/31/4 12/12/4 34/34/4 52/52/4 51/51/4
f 3/3/1 7/7/1 30/30/1 29/29/1
f 49/49/4 52/52/4 34/34/4 16/16/4 32/32/4
f 45/45/1 28/28/1 13/13/1 36/36/1 48/48/1
f 41/41/2 24/24/2 16/16/2 34/34/2 44/44/2
f 37/37/3 40/40/3 33/33/3 15/15/3 20/20/3
f 10/10/1 35/35/1 46/46/1 47/47/1 27/27/1
f 9/9/2 36/36/2 42/42/2 43/43/2 23/23/2
f 10/10/3 19/19/3 39/39/3 38/38/3 35/35/3
f 11/11/4 31/31/4 51/51/4 50/50/4 33/33/4
f 47/47/13 51/51/13 52/52/13 48/48/13
f 46/46/14 50/50/14 51/51/14 47/47/14
f 35/35/3 38/38/3 37/37/3 20/20/3 14/14/3
f 38/38/15 39/39/15 43/43/15 42/42/15
f 39/39/16 40/40/16 44/44/16 43/43/16
f 40/40/17 37/37/17 41/41/17 44/44/17
f 37/37/18 38/38/18 42/42/18 41/41/18
f 48/48/19 52/52/19 49/49/19 45/45/19
f 45/45/20 49/49/20 50/50/20 46/46/20
